# xmcd CD database file
#
# Track frame offsets:
#	150
#	23125
#	47330
#	67173
#	85585
#	110338
#	132715
#	156888
#	179313
#	192678
#
# Disc length: 2883 seconds
#
# Revision: 0
# Processed by: cddbd v1.5.2PL0 Copyright (c) Steve Scherf et al.
# Submitted via: CDex 1.70beta2
#
DISCID=880b410a
DTITLE=Larry O'Neill - You got me runnin'
DYEAR=1991
DGENRE=Blues
TTITLE0=You got me runnin'
TTITLE1=I need you so
TTITLE2=Hard luck Blues
TTITLE3=Woke up this morning
TTITLE4=I want a little girl
TTITLE5=Ain't nobody sleepin' in my bed
TTITLE6=Don't deceive me
TTITLE7=Built for comfort
TTITLE8=How do you speak to an angel
TTITLE9=Why must I be lonely
EXTD=YEAR: 1991
EXTT0=
EXTT1=
EXTT2=
EXTT3=
EXTT4=
EXTT5=
EXTT6=
EXTT7=
EXTT8=
EXTT9=
PLAYORDER=
